<svg xmlns="http://www.w3.org/2000/svg" width="48" height="48" id="target"><g fill="#fff" transform="translate(8 -1013.362)"><circle cx="16" cy="1037.362" r="24" fill="#ef4c45"></circle><path style="line-height:normal;text-indent:0;text-align:start;text-decoration-line:none;text-decoration-style:solid;text-decoration-color:#000;text-transform:none;block-progression:tb;isolation:auto;mix-blend-mode:normal" fill="#df2209" fill-rule="evenodd" d="M29.068 47.428a24 24 0 0 0 1.352-.303 24 24 0 0 0 2.277-.756 24 24 0 0 0 2.19-.98 24 24 0 0 0 2.08-1.194 24 24 0 0 0 1.951-1.394 24 24 0 0 0 1.803-1.584 24 24 0 0 0 1.634-1.756 24 24 0 0 0 1.454-1.91 24 24 0 0 0 1.254-2.045 24 24 0 0 0 1.042-2.16 24 24 0 0 0 .823-2.254 24 24 0 0 0 .513-2.012L33.18 14.82a13.02 13.02 0 0 0-3.91-2.69 12.884 12.884 0 0 0-2.438-.798L24.5 9h-1v2.025c-6.35.243-11.531 5.04-12.367 11.221-.056.412-.091.83-.108 1.254H9v1l2.332 2.332a12.96 12.96 0 0 0 3.488 6.348l14.248 14.248z" color="#000" font-family="sans-serif" font-weight="400" transform="translate(-8 1013.362)"></path><path style="line-height:normal;text-indent:0;text-align:start;text-decoration-line:none;text-decoration-style:solid;text-decoration-color:#000;text-transform:none;block-progression:tb;isolation:auto;mix-blend-mode:normal" fill-rule="evenodd" d="M15.5 1v2.025C8.726 3.285 3.284 8.726 3.025 15.5H1v1h2.025c.26 6.773 5.702 12.216 12.475 12.475V31h1v-2.025c6.773-.26 12.216-5.702 12.475-12.475H31v-1h-2.025C28.716 8.726 23.274 3.284 16.5 3.025V1h-1zm0 3.025V6h1V4.025A11.972 11.972 0 0 1 27.975 15.5H26v1h1.975A11.972 11.972 0 0 1 16.5 27.975V26h-1v1.975A11.972 11.972 0 0 1 4.025 16.5H6v-1H4.025A11.972 11.972 0 0 1 15.5 4.025ZM15.986 7c-2.27 0-4.119 1.864-4.119 4.145 0 1.268.585 2.393 1.485 3.154-2.868.24-5.118 2.655-5.118 5.6v3.583a.5.5 0 0 0 .5.5h2.774a.5.5 0 0 0 .263 0h8.456a.5.5 0 0 0 .263 0h2.776a.5.5 0 0 0 .5-.5v-3.584c0-2.953-2.264-5.372-5.145-5.6.899-.76 1.483-1.885 1.483-3.153 0-2.28-1.847-4.145-4.118-4.145Zm0 1a3.124 3.124 0 0 1 3.118 3.145c0 1.71-1.341 3.08-3.022 3.132h-.191a3.119 3.119 0 0 1-3.024-3.132A3.125 3.125 0 0 1 15.987 8Zm-2.166 7.277h2.073c.032.001.061.01.093.01s.062-.009.094-.01h2.1c2.547 0 4.586 2.051 4.586 4.621v3.084h-1.907v-2.794a.5.5 0 0 0-.507-.506.5.5 0 0 0-.493.506v2.794h-7.718v-2.794a.5.5 0 0 0-.508-.506.5.5 0 0 0-.492.506v2.794H9.234v-3.084c0-2.57 2.039-4.62 4.586-4.62z" color="#000" font-family="sans-serif" font-weight="400" overflow="visible" transform="translate(0 1021.362)"></path></g></svg>