<?xml version="1.0" encoding="utf-8"?>
<svg xmlns="http://www.w3.org/2000/svg" xmlns:xlink="http://www.w3.org/1999/xlink" version= "1.1" width="1920px" height="1300px" viewBox="-600 61 1920 1300">
<g id="layer1">
<g style="fill:rgb(97,190,255); fill-opacity:1.0; stroke-linejoin: miter">
<path d="M-600.001,59.66191L-600.26306,59.687836L-600.8171,1362.0581L1320.2627,1362.3119L1320.8167,59.941498L-600.001,59.66191 Z"/>
</g>
<g>
<g style="fill:rgb(0,0,0); fill-opacity:1.0; stroke-linejoin: miter">
</g>
</g>
<g style="fill:rgb(0,0,0); fill-opacity:1.0; stroke-linejoin: miter">
</g>
<g style="fill:rgb(0,0,0); fill-opacity:1.0; stroke-linejoin: miter">
</g>
<g style="fill:rgb(0,0,0); fill-opacity:0.13725491; stroke-linejoin: miter">
<path d="M1133.945,1295.8844L1127.4541,1298.138Q1081.309,1304.9478,857.4128,1309.0304Q631.96716,1313.1105,326.45728,1312.3391Q34.888084,1311.2617,-139.92363,1306.0319Q-195.93536,1304.3414,-232.19649,1302.3485L-262.6733,1300.299Q-287.78864,1298.184,-288.07104,1295.8844Q-280.44684,1288.8275,-79.82161,1284.1417Q120.80342,1279.4558,422.93677,1279.2781Q725.07043,1279.4558,925.6954,1284.1417Q1126.3207,1288.8275,1133.945,1295.8844"/>
</g>
<g style="fill:rgb(246,253,255); fill-opacity:0.2901961; stroke-linejoin: miter">
<path d="M349.0662,992.68384L390.19528,1089.8229L431.32477,1186.9626Q468.50552,1088.1769,505.68652,989.3915Q427.37625,991.0376,349.0662,992.68384"/>
</g>
<g style="fill:rgb(202,233,247); fill-opacity:1.0; stroke-linejoin: miter">
<path d="M431.68182,347.84348C428.51953,347.84348,425.95682,344.24835,425.95682,339.81464L425.95682,299.49304C425.95682,295.05865,428.5207,291.46426,431.68195,291.46426C434.8437,291.46426,437.40677,295.0594,437.40677,299.49304L437.40677,339.81274C437.40753,344.24792,434.8437,347.84348,431.68182,347.84348 Z"/>
</g>
<g style="fill:rgb(99,112,121); fill-opacity:1.0; stroke-linejoin: miter">
<path d="M458.91693,279.75378C458.91693,294.7966,446.72263,306.9909,431.68024,306.9909C416.63785,306.9909,404.4438,294.7966,404.4438,279.7542C404.4438,264.7118,416.6382,252.51788,431.68024,252.51788C446.72263,252.51788,458.91693,264.7118,458.91693,279.75378 Z"/>
</g>
<g style="fill:rgb(99,112,121); fill-opacity:1.0; stroke-linejoin: miter">
<path d="M481.6142,335.7388L381.74994,335.73923C374.22742,335.7388,368.132,341.8342,368.132,349.3562L368.132,359.94772L495.23212,359.9481L495.23212,349.3562C495.23212,341.835,489.135,335.7388,481.6142,335.7388 Z"/>
</g>
<g style="fill:rgb(35,31,32); fill-opacity:0.09803922; stroke-linejoin: miter">
<path d="M416.58862,279.75378C416.58862,266.79993,425.63504,255.96552,437.7536,253.2063C435.80017,252.76117,433.77142,252.51865,431.6829,252.51865C416.63995,252.51831,404.44666,264.7118,404.44666,279.7542C404.44666,294.7962,416.63995,306.9901,431.68332,306.9905C433.77087,306.9905,435.80017,306.74728,437.7536,306.3021C425.63446,303.54175,416.58862,292.70773,416.58862,279.75378 Z"/>
</g>
<g style="fill:rgb(35,31,32); fill-opacity:0.09803922; stroke-linejoin: miter">
<path d="M393.89212,335.7388L381.75052,335.73923C374.228,335.7388,368.13275,341.8342,368.13257,349.3562L368.13275,359.94772L380.27493,359.9485L380.27493,349.3562C380.27493,341.835,386.36975,335.7388,393.89212,335.7388 Z"/>
</g>
<g style="fill:rgb(99,112,121); fill-opacity:1.0; stroke-linejoin: miter">
<path d="M462.19174,576.3017L392.7182,576.3024C385.1987,576.3017,379.09985,570.204,379.09985,562.6839L379.09985,555.11865C379.09985,547.5982,385.19797,541.5005,392.7182,541.5005L470.64233,541.5012C478.16486,541.5005,484.2608,547.5982,484.2608,555.11865L484.26068,562.6839C484.2608,570.20435,478.16504,576.3017,470.64233,576.3017L462.19174,576.3024"/>
</g>
<g style="fill:rgb(35,31,32); fill-opacity:0.09803922; stroke-linejoin: miter">
<path d="M391.24203,562.6839L391.24203,555.11865C391.24203,547.5982,397.34012,541.5005,404.86075,541.5005L392.71915,541.5012C385.1991,541.5005,379.10065,547.5982,379.10065,555.11865L379.10043,562.6839C379.10043,570.20435,385.1987,576.3017,392.71915,576.3017L404.86075,576.3024C397.33994,576.3017,391.24185,570.20355,391.24203,562.6839 Z"/>
</g>
<g style="fill:rgb(99,112,121); fill-opacity:1.0; stroke-linejoin: miter">
<path d="M309.7998,411.1987C291.25958,411.30484,276.2601,428.7897,276.2601,450.34924C276.2601,471.90967,291.2594,489.39368,309.79962,489.5014L309.7998,411.1987 Z"/>
</g>
<g style="fill:rgb(99,112,121); fill-opacity:1.0; stroke-linejoin: miter">
<path d="M553.5654,411.1987C572.1038,411.30484,587.10516,428.7897,587.10516,450.34964C587.10535,471.90997,572.1038,489.3941,553.5654,489.5017L553.5654,411.1987 Z"/>
</g>
<g style="fill:rgb(246,253,255); fill-opacity:1.0; stroke-linejoin: miter">
<path d="M554.9995,359.18503L349.2127,359.1858L330.12857,359.18536L308.36368,359.1858C300.8425,359.18536,294.74496,365.2827,294.74496,372.80276L294.74475,529.41003C294.74475,536.9313,300.8423,543.0278,308.36346,543.0274L554.9993,543.0282C562.51917,543.0274,568.6167,536.9304,568.6167,529.40967L568.6167,372.80276C568.6167,365.2816,562.5198,359.18503,554.9995,359.18503 Z"/>
</g>
<g style="fill:rgb(99,112,121); fill-opacity:1.0; stroke-linejoin: miter">
<path d="M384.7737,423.4922C384.7737,432.68436,377.32224,440.13623,368.13007,440.13623C358.9381,440.13623,351.48645,432.6851,351.48645,423.4926C351.48645,414.30078,358.9381,406.8489,368.13007,406.8489C377.32224,406.8489,384.7737,414.30005,384.7737,423.4922 Z"/>
</g>
<g style="fill:rgb(99,112,121); fill-opacity:1.0; stroke-linejoin: miter">
<path d="M511.87518,423.4922C511.87518,432.68436,504.4237,440.13623,495.23138,440.13623C486.03943,440.13623,478.5879,432.68436,478.5879,423.4922C478.5879,414.30005,486.03943,406.8489,495.23138,406.84857C504.42334,406.8489,511.87518,414.30005,511.87518,423.4922 Z"/>
</g>
<g style="fill:rgb(35,31,32); fill-opacity:0.09803922; stroke-linejoin: miter">
<path d="M287.18948,450.34924C287.1897,434.86865,293.34753,421.067,302.96738,412.04492C287.71045,415.78906,276.2601,431.51334,276.2601,450.34924C276.2601,469.18634,287.71045,484.91028,302.96716,488.654C293.34753,479.63226,287.18948,465.83105,287.18948,450.34924 Z"/>
</g>
<g style="fill:rgb(35,31,32); fill-opacity:0.09803922; stroke-linejoin: miter">
<path d="M306.8885,529.40924L306.88867,372.80276C306.88867,365.2827,312.98465,359.18503,320.5072,359.18536L308.36368,359.1858C300.8425,359.18536,294.74496,365.2827,294.74496,372.80276L294.74475,529.41003C294.74475,536.9313,300.8423,543.0278,308.36346,543.0274L320.50568,543.0282C312.98447,543.0274,306.88828,536.9304,306.8885,529.40924 Z"/>
</g>
<g style="fill:rgb(35,31,32); fill-opacity:0.09803922; stroke-linejoin: miter">
<path d="M363.62976,423.4918C363.62976,416.4429,368.01422,410.42148,374.20306,407.99545C372.32126,407.25806,370.27563,406.84818,368.13297,406.84818C358.93945,406.84818,351.4878,414.30005,351.4878,423.4918C351.4878,432.68393,358.93945,440.13547,368.13297,440.13547C370.27563,440.13547,372.32126,439.7256,374.20306,438.9882C368.0132,436.56216,363.62997,430.54068,363.62976,423.4918 Z"/>
</g>
<g style="fill:rgb(35,31,32); fill-opacity:0.09803922; stroke-linejoin: miter">
<path d="M490.72992,423.4918C490.72992,416.44257,495.11414,410.42148,501.30402,407.99545C499.42212,407.25806,497.37524,406.84818,495.23254,406.84818C486.03967,406.84818,478.5885,414.29962,478.5885,423.4918C478.58875,432.6836,486.03967,440.13547,495.23254,440.13547C497.3758,440.13547,499.42212,439.7256,501.30402,438.9882C495.11414,436.56216,490.72992,430.54068,490.72992,423.4918 Z"/>
</g>
<g style="fill:rgb(246,253,255); fill-opacity:1.0; stroke-linejoin: miter">
<path d="M253.92654,672.5393C236.23215,672.5393,221.75458,687.017,221.75479,704.71185L221.75458,994.25415C212.10219,994.25415,205.66853,1000.6874,205.66853,1010.3401C205.66853,1019.9923,212.10219,1026.4255,221.75458,1026.4255L270.0126,1026.4279C279.665,1026.4255,286.09848,1019.9923,286.09848,1010.3401C286.09848,1000.6874,279.665,994.25415,270.0126,994.25415L286.09848,672.5393C286.09848,672.5393,253.92654,672.5393,253.92654,672.5393 Z M639.98517,994.25415L639.98517,704.71185C639.98517,687.017,625.50757,672.5393,607.813,672.5393L575.64105,672.54126L591.72906,994.25415C582.07666,994.25415,575.64294,1000.68774,575.64294,1010.34045C575.64294,1019.9923,582.07666,1026.4259,591.72906,1026.4259L639.98706,1026.4282C649.63947,1026.4259,656.0733,1019.9923,656.0733,1010.3401C656.0733,1000.68774,649.6358,994.25415,639.98517,994.25415 Z"/>
</g>
<g style="fill:rgb(99,112,121); fill-opacity:1.0; stroke-linejoin: miter">
<path d="M286.09677,1010.3401C286.09677,1000.6874,279.66312,994.25415,270.0107,994.25415L286.09677,672.5393L253.92654,672.54126L253.92654,994.25415L270.0126,1026.4255C279.66312,1026.4255,286.09677,1019.9923,286.09677,1010.3401 Z M607.813,672.5393L575.64105,672.54126L591.72906,994.25415C582.07666,994.25415,575.64294,1000.68774,575.64294,1010.34045C575.64294,1019.9923,582.07666,1026.4259,591.72906,1026.4259L607.8151,994.25415L607.8151,672.5393L607.813,672.54126 Z"/>
</g>
<g style="fill:rgb(246,253,255); fill-opacity:1.0; stroke-linejoin: miter">
<path d="M428.82007,1007.8179C517.2922,1007.8179,588.0682,937.0403,588.068,848.57056L588.0679,560.63605L269.5702,560.63416L269.5702,848.57056C269.57034,937.0406,340.3462,1007.8179,428.82007,1007.8179 Z"/>
</g>
<g style="fill:rgb(99,112,121); fill-opacity:1.0; stroke-linejoin: miter">
<path d="M430.87103,559.9396C448.56543,559.9396,463.0428,574.417,463.0428,592.1114C463.0428,609.80615,448.56543,624.28357,430.87085,624.28357C413.17642,624.28357,398.69888,609.80615,398.69888,592.1114C398.69888,574.417,413.1747,559.9396,430.87103,559.9396 Z"/>
</g>
<g style="fill:rgb(99,112,121); fill-opacity:1.0; stroke-linejoin: miter">
<path d="M260.00168,675.5705L260.00168,675.5721L253.83939,709.30646L590.11865,704.71344L590.11865,672.5393L262.64868,673.325L271.62112,672.5393 Z"/>
</g>
<g style="fill:rgb(99,112,121); fill-opacity:1.0; stroke-linejoin: miter">
<path d="M479.12787,752.968L479.12616,752.96954L479.1258,913.827L511.29968,913.8281L511.2979,752.9684L479.12787,752.968L479.12616,752.96954 Z"/>
</g>
<g style="fill:rgb(99,112,121); fill-opacity:1.0; stroke-linejoin: miter">
<path d="M414.78397,752.968L414.7823,752.96954L414.7817,913.827L446.95557,913.8281L446.9542,752.968L414.78397,752.96954L414.7823,752.968 Z"/>
</g>
<g style="fill:rgb(99,112,121); fill-opacity:1.0; stroke-linejoin: miter">
<path d="M350.4418,752.968L350.44006,752.96954L350.4397,913.8266L382.61377,913.8281L382.61203,752.968L350.4418,752.968L350.44006,752.96954 Z"/>
</g>
<g style="fill:rgb(99,112,121); fill-opacity:1.0; stroke-linejoin: miter">
<path d="M315.55984,969.6346L540.7601,969.6365L508.58813,1001.8048L347.73178,1001.80676L315.55984,969.6346 Z"/>
</g>
<g style="fill:rgb(255,255,255); fill-opacity:0.99607843; stroke-linejoin: miter">
<path d="M669.2744,610.47424L669.2744,610.47473L640.5826,603.43933Q525.8154,643.61487,411.04822,683.79047Q430.11707,687.8876,449.1858,691.98474L669.2744,610.47424"/>
</g>
<g style="fill:rgb(255,255,255); fill-opacity:0.99607843; stroke-linejoin: miter">
<path d="M209.91077,615.54456L209.91083,615.54456L238.93378,610.03235Q348.26968,645.3861,457.60562,680.73987Q441.5004,694.6434,425.39505,708.5468L209.91077,615.54456"/>
</g>
<g style="fill:rgb(204,128,105); fill-opacity:1.0; stroke-linejoin: miter">
<path d="M404.50757,697.6284L404.50757,697.6293L666.24384,610.1075Q665.8677,766.0236,665.4914,921.9398Q552.7497,970.5796,440.00797,1019.21936L404.50757,697.6284"/>
</g>
<g style="fill:rgb(204,128,105); fill-opacity:1.0; stroke-linejoin: miter">
<path d="M471.86194,702.79254L210.12576,615.2715L210.87817,927.10394L436.3615,1024.3833L471.86194,702.79254"/>
</g>
<g style="fill:rgb(0,0,0); fill-opacity:0.99607843; stroke-linejoin: miter">
<path d="M481.60724,671.4514L427.3275,683.25555L387.48322,673.0457L390.7145,1005.30396L438.8024,1027.407L482.06683,1003.89404L481.60724,671.4514"/>
</g>
<g style="fill:rgb(0,0,0); fill-opacity:0.99607843; stroke-linejoin: miter">
<path d="M579.3204,747.1923L579.32086,747.19275L579.32117,747.1932L579.3204,747.1923"/>
</g>
<g style="fill:rgb(0,0,0); fill-opacity:1.0; stroke-linejoin: miter">
<path d="M420.01816,973.34094L437.27597,973.3418L454.53375,973.3428Q454.53375,1136.752,454.53375,1300.1609Q437.27597,1300.1622,420.01816,1300.1631Q420.01816,1136.752,420.01816,973.34094"/>
</g>
<g style="fill:rgb(0,0,0); fill-opacity:0.99607843; stroke-linejoin: miter">
<path d="M480.20502,1295.8119L479.81262,1296.4033Q477.02332,1298.1912,463.48947,1299.263Q449.862,1300.3337,431.39484,1300.1313Q413.77042,1299.8484,403.20358,1298.4756Q399.81787,1298.0319,397.626,1297.5087L395.78375,1296.9705Q394.2656,1296.4153,394.24857,1295.8119Q394.7094,1293.9591,406.83658,1292.7294Q418.96368,1291.4994,437.22675,1291.4525Q455.48978,1291.4994,467.61697,1292.7294Q479.74408,1293.9591,480.20502,1295.8119"/>
</g>
<g>
<g style="fill:rgb(0,0,0); fill-opacity:1.0; stroke-linejoin: miter">
<path d="M-155.02652,1271.7815C-182.58273,1271.7815,-204.69629,1248.0203,-201.95197,1219.9111C-199.56145,1195.4138,-177.53738,1177.4675,-152.92459,1177.4675L182.35452,1177.4683C187.24759,1177.4675,191.21396,1173.5011,191.21396,1168.6089L191.21396,1168.6096C191.21396,1163.7157,187.24759,1159.7502,182.35452,1159.7502L-152.31064,1159.751C-187.83551,1159.7502,-218.81273,1187.1249,-219.87836,1222.6329C-220.98077,1259.3756,-191.52335,1289.5063,-155.03156,1289.5063L182.35452,1289.5071C187.24759,1289.5063,191.21396,1285.54,191.21396,1280.6469L191.21396,1280.6418C191.21396,1275.7495,187.24759,1271.7832,182.35452,1271.7832L-155.02652,1271.7839 Z"/>
</g>
<g style="fill:rgb(235,240,243); fill-opacity:1.0; stroke-linejoin: miter">
<path d="M-201.95197,1219.9121C-204.69713,1248.0203,-182.58273,1271.7825,-155.02652,1271.7825L180.67331,1271.7832C166.04153,1240.3444,166.04153,1208.9072,180.67331,1177.4683L-152.92374,1177.4691C-177.53906,1177.4683,-199.56145,1195.4138,-201.95197,1219.9121 Z"/>
</g>
<g style="fill:rgb(225,230,233); fill-opacity:1.0; stroke-linejoin: miter">
<path d="M-173.00394,1198.9822L173.0433,1198.9829C173.35867,1197.7349,173.77017,1196.4895,174.1307,1195.2449L-173.00394,1195.2458L-173.00394,1198.9822 Z"/>
</g>
<g style="fill:rgb(225,230,233); fill-opacity:1.0; stroke-linejoin: miter">
<path d="M-173.00394,1212.7346L170.40189,1212.7355C170.54996,1211.4875,170.86362,1210.2412,171.05515,1208.9966L-173.00394,1208.9974L-173.00394,1212.7346 Z"/>
</g>
<g style="fill:rgb(225,230,233); fill-opacity:1.0; stroke-linejoin: miter">
<path d="M-173.00394,1226.4939L169.80716,1226.4948C169.78293,1225.2476,169.78293,1224.0015,169.80716,1222.7567L-173.00394,1222.7576L-173.00394,1226.4939 Z"/>
</g>
<g style="fill:rgb(225,230,233); fill-opacity:1.0; stroke-linejoin: miter">
<path d="M-173.00394,1240.254L171.05515,1240.2549C170.86362,1239.0078,170.54996,1237.7606,170.40189,1236.5168L-173.00394,1236.5176L-173.00394,1240.254 Z"/>
</g>
<g style="fill:rgb(225,230,233); fill-opacity:1.0; stroke-linejoin: miter">
<path d="M-173.00394,1254.0073L174.13077,1254.0083C173.76932,1252.7603,173.35867,1251.514,173.04337,1250.2703L-173.00394,1250.271L-173.00394,1254.0073 Z"/>
</g>
</g>
<g style="fill:rgb(136,70,54); fill-opacity:1.0; stroke-linejoin: miter">
<path d="M123.81564,1140.2704C151.37186,1140.2704,173.48541,1116.5092,170.74109,1088.4C168.35057,1063.9027,146.3265,1045.9564,121.713715,1045.9564L-213.5654,1045.9572C-218.45847,1045.9564,-222.42484,1041.99,-222.42484,1037.0978L-222.42484,1037.0985C-222.42484,1032.2046,-218.45847,1028.2391,-213.5654,1028.2391L121.09976,1028.2399C156.62463,1028.2391,187.60185,1055.6138,188.66748,1091.1218C189.7699,1127.8645,160.31247,1157.9952,123.82068,1157.9952L-213.5654,1157.996C-218.45847,1157.9952,-222.42484,1154.0289,-222.42484,1149.1357L-222.42484,1149.1307C-222.42484,1144.2384,-218.45847,1140.2721,-213.5654,1140.2721L123.81564,1140.2728 Z"/>
</g>
<g style="fill:rgb(235,240,243); fill-opacity:1.0; stroke-linejoin: miter">
<path d="M170.74109,1088.401C173.48625,1116.5092,151.37186,1140.2714,123.81564,1140.2714L-211.88419,1140.2721C-197.25241,1108.8333,-197.25241,1077.3961,-211.88419,1045.9572L121.71286,1045.958C146.32819,1045.9572,168.35057,1063.9027,170.74109,1088.401 Z"/>
</g>
<g style="fill:rgb(225,230,233); fill-opacity:1.0; stroke-linejoin: miter">
<path d="M141.79306,1067.4711L-204.25418,1067.4718C-204.56955,1066.2238,-204.98105,1064.9784,-205.34158,1063.7338L141.79306,1063.7347L141.79306,1067.4711 Z"/>
</g>
<g style="fill:rgb(225,230,233); fill-opacity:1.0; stroke-linejoin: miter">
<path d="M141.79306,1081.2235L-201.61276,1081.2244C-201.76083,1079.9764,-202.0745,1078.7301,-202.26602,1077.4855L141.79306,1077.4863L141.79306,1081.2235 Z"/>
</g>
<g style="fill:rgb(225,230,233); fill-opacity:1.0; stroke-linejoin: miter">
<path d="M141.79306,1094.9828L-201.01804,1094.9836C-200.9938,1093.7365,-200.9938,1092.4904,-201.01804,1091.2456L141.79306,1091.2465L141.79306,1094.9828 Z"/>
</g>
<g style="fill:rgb(225,230,233); fill-opacity:1.0; stroke-linejoin: miter">
<path d="M141.79306,1108.7429L-202.26602,1108.7438C-202.0745,1107.4967,-201.76083,1106.2495,-201.61276,1105.0057L141.79306,1105.0065L141.79306,1108.7429 Z"/>
</g>
<g style="fill:rgb(225,230,233); fill-opacity:1.0; stroke-linejoin: miter">
<path d="M141.79306,1122.4962L-205.34164,1122.4972C-204.9802,1121.2491,-204.56955,1120.0029,-204.25424,1118.7592L141.79306,1118.7599L141.79306,1122.4962 Z"/>
</g>
<g style="fill:rgb(83,93,102); fill-opacity:1.0; stroke-linejoin: miter">
<path d="M-105.05876,688.4556C-105.0588,660.89935,-81.29754,638.7857,-53.188343,641.52985C-28.691097,643.9204,-10.744808,665.94446,-10.744805,690.5574L-10.745625,1025.8364C-10.74489,1030.7294,-6.7784758,1034.6958,-1.8862839,1034.6958L-1.8870163,1034.6958C3.0068848,1034.6958,6.972323,1030.7294,6.9723234,1025.8363L6.9717364,691.17126C6.9724717,655.64624,-20.402102,624.669,-55.910156,623.60345C-92.65289,622.5011,-122.78351,651.9587,-122.78347,688.45056L-122.784035,1025.8365C-122.78329,1030.7295,-118.81699,1034.6959,-113.92384,1034.696L-113.91884,1034.696C-109.02652,1034.696,-105.060234,1030.7296,-105.06024,1025.8365L-105.0612,688.4556 Z"/>
</g>
<g style="fill:rgb(235,240,243); fill-opacity:1.0; stroke-linejoin: miter">
<path d="M-53.18932,641.52985C-81.29754,638.78485,-105.05978,660.89935,-105.05974,688.4556L-105.06024,1024.1554C-73.62154,1009.5235,-42.18447,1009.52356,-10.745625,1024.1552L-10.746392,690.5582C-10.745541,665.9428,-28.691097,643.9204,-53.18932,641.52985 Z"/>
</g>
<g style="fill:rgb(225,230,233); fill-opacity:1.0; stroke-linejoin: miter">
<path d="M-32.25945,670.478L-32.26019,1016.52515C-31.012146,1016.8406,-29.76679,1017.2521,-28.522165,1017.61255L-28.523123,670.478L-32.25945,670.478 Z"/>
</g>
<g style="fill:rgb(225,230,233); fill-opacity:1.0; stroke-linejoin: miter">
<path d="M-46.011887,670.4781L-46.012703,1013.884C-44.764782,1014.03204,-43.518448,1014.34564,-42.27382,1014.53705L-42.274704,670.4781L-46.011887,670.4781 Z"/>
</g>
<g style="fill:rgb(225,230,233); fill-opacity:1.0; stroke-linejoin: miter">
<path d="M-59.771152,670.4781L-59.77192,1013.2891C-58.524734,1013.2649,-57.278645,1013.2649,-56.033897,1013.2891L-56.034824,670.4781L-59.771152,670.4781 Z"/>
</g>
<g style="fill:rgb(225,230,233); fill-opacity:1.0; stroke-linejoin: miter">
<path d="M-73.531334,670.4781L-73.53205,1014.53705C-72.284996,1014.34564,-71.0378,1014.032,-69.79404,1013.8839L-69.79489,670.4781L-73.531334,670.4781 Z"/>
</g>
<g style="fill:rgb(225,230,233); fill-opacity:1.0; stroke-linejoin: miter">
<path d="M-87.28463,670.47815L-87.285416,1017.6127C-86.03737,1017.2512,-84.79116,1016.8406,-83.54739,1016.52527L-83.5483,670.47815L-87.28463,670.47815 Z"/>
</g>
</g>
</svg>