<svg xmlns="http://www.w3.org/2000/svg" xml:space="preserve" stroke-miterlimit="10" style="fill-rule:nonzero;clip-rule:evenodd;stroke-linecap:round;stroke-linejoin:round" viewBox="0 0 276.168 38.519"><path fill="#201b16" d="M42.862 27.408V10.5l11.546 12.079V11.576h2.39v16.796L45.252 16.324v11.084h-2.39ZM62.98 11.576v15.832h-2.389V11.576h2.39Zm15.504.851v2.83c-1.38-1.155-2.81-1.732-4.286-1.732-1.627 0-2.997.584-4.111 1.753-1.122 1.162-1.682 2.584-1.682 4.266 0 1.66.56 3.062 1.681 4.204 1.122 1.141 2.496 1.712 4.123 1.712.84 0 1.555-.137 2.143-.41a6.18 6.18 0 0 0 1.02-.554 12.06 12.06 0 0 0 1.112-.84v2.88c-1.367.773-2.802 1.16-4.306 1.16-2.263 0-4.194-.79-5.794-2.37-1.592-1.592-2.389-3.513-2.389-5.762 0-2.017.667-3.814 2-5.393 1.64-1.935 3.763-2.902 6.367-2.902 1.422 0 2.796.386 4.123 1.158Zm5.846 5.343h6.828v-6.194h2.39v15.832h-2.39v-7.393H84.33v7.393h-2.39V11.576h2.39v6.194Zm12.222 1.65c0-2.228.817-4.142 2.45-5.742 1.628-1.6 3.583-2.399 5.866-2.399 2.256 0 4.19.807 5.803 2.42 1.621 1.613 2.431 3.551 2.431 5.814 0 2.276-.814 4.207-2.441 5.793-1.634 1.593-3.606 2.39-5.916 2.39-2.044 0-3.88-.708-5.507-2.123-1.79-1.566-2.686-3.616-2.686-6.152Zm2.41.031c0 1.75.587 3.19 1.763 4.317 1.169 1.128 2.519 1.692 4.05 1.692 1.662 0 3.063-.574 4.205-1.723 1.141-1.162 1.712-2.577 1.712-4.245 0-1.688-.564-3.103-1.692-4.245-1.121-1.148-2.509-1.722-4.163-1.722-1.647 0-3.039.574-4.173 1.722-1.135 1.135-1.703 2.536-1.703 4.204Zm19.533-7.875v13.587h4.655v2.245h-7.044V11.576h2.389Zm17.104 11.987h-6.778l-1.764 3.845h-2.573l7.833-16.826 7.558 16.826h-2.615l-1.661-3.845Zm-.974-2.245-2.349-5.384-2.46 5.383h4.809Zm16.18-7.383-1.938 1.148c-.362-.629-.707-1.039-1.035-1.23-.342-.22-.783-.328-1.323-.328-.663 0-1.213.188-1.651.563-.437.37-.656.835-.656 1.395 0 .773.574 1.395 1.722 1.866l1.58.646c1.285.52 2.225 1.154 2.819 1.902.595.749.892 1.667.892 2.754 0 1.456-.485 2.659-1.456 3.609-.977.957-2.191 1.435-3.64 1.435-1.374 0-2.509-.406-3.404-1.22-.882-.813-1.432-1.958-1.651-3.435l2.42-.533c.109.93.301 1.572.574 1.928.492.683 1.21 1.025 2.154 1.025.745 0 1.363-.25 1.855-.748.493-.5.739-1.132.739-1.897 0-.308-.043-.59-.128-.846a2.16 2.16 0 0 0-.4-.708 3.198 3.198 0 0 0-.703-.605 6.778 6.778 0 0 0-1.025-.538l-1.528-.636c-2.167-.916-3.25-2.256-3.25-4.02 0-1.189.454-2.184 1.363-2.983.91-.807 2.041-1.21 3.394-1.21 1.826 0 3.251.888 4.276 2.666Zm9.219 13.473 3.332-17.021 5.435 12.305 5.629-12.305 2.994 17.021h-2.451l-1.527-9.556-4.686 10.284-4.553-10.294-1.702 9.566h-2.471Zm30.043-3.845h-6.777l-1.764 3.845h-2.574l7.834-16.826 7.557 16.826h-2.614l-1.662-3.845Zm-.974-2.245-2.348-5.384-2.461 5.383h4.809Zm16.181-7.383-1.938 1.148c-.362-.629-.707-1.039-1.036-1.23-.341-.22-.782-.328-1.322-.328-.663 0-1.214.188-1.651.563-.438.37-.656.835-.656 1.395 0 .773.574 1.395 1.722 1.866l1.579.646c1.285.52 2.225 1.154 2.82 1.902.595.749.892 1.667.892 2.754 0 1.456-.485 2.659-1.456 3.609-.977.957-2.191 1.435-3.64 1.435-1.374 0-2.509-.406-3.404-1.22-.882-.813-1.432-1.958-1.651-3.435l2.42-.533c.109.93.301 1.572.574 1.928.492.683 1.21 1.025 2.153 1.025.745 0 1.364-.25 1.856-.748.492-.5.739-1.132.739-1.897 0-.308-.043-.59-.129-.846a2.124 2.124 0 0 0-.4-.708 3.191 3.191 0 0 0-.702-.605 6.778 6.778 0 0 0-1.025-.538l-1.528-.636c-2.167-.916-3.251-2.256-3.251-4.02 0-1.189.455-2.184 1.364-2.983.909-.807 2.041-1.21 3.394-1.21 1.825 0 3.251.888 4.276 2.666Zm5.681 7.045v6.428h-2.389V11.576h2.707c1.326 0 2.327.093 3.004.277a4.03 4.03 0 0 1 1.805 1.046c.909.889 1.363 2.01 1.363 3.363 0 1.45-.485 2.598-1.456 3.446-.97.847-2.279 1.271-3.927 1.271h-1.107Zm0-2.216h.892c2.194 0 3.291-.844 3.291-2.532 0-1.634-1.131-2.451-3.394-2.451h-.789v4.983Zm8.162.656c0-2.228.817-4.142 2.45-5.742 1.627-1.6 3.583-2.399 5.866-2.399 2.256 0 4.19.807 5.803 2.42 1.621 1.613 2.431 3.551 2.431 5.814 0 2.276-.814 4.207-2.441 5.793-1.634 1.593-3.606 2.39-5.916 2.39-2.044 0-3.88-.708-5.507-2.123-1.791-1.566-2.686-3.616-2.686-6.152Zm2.409.031c0 1.75.588 3.19 1.764 4.317 1.169 1.128 2.519 1.692 4.05 1.692 1.662 0 3.063-.574 4.205-1.723 1.141-1.162 1.712-2.577 1.712-4.245 0-1.688-.564-3.103-1.692-4.245-1.121-1.148-2.509-1.722-4.163-1.722-1.647 0-3.039.574-4.173 1.722-1.135 1.135-1.703 2.536-1.703 4.204Zm28.845-7.024v2.83c-1.381-1.155-2.81-1.732-4.286-1.732-1.627 0-2.998.584-4.112 1.753-1.121 1.162-1.682 2.584-1.682 4.266 0 1.66.561 3.062 1.682 4.204 1.121 1.141 2.495 1.712 4.122 1.712.841 0 1.555-.137 2.143-.41a6.183 6.183 0 0 0 1.02-.554c.352-.232.723-.512 1.113-.84v2.88c-1.367.773-2.803 1.16-4.307 1.16-2.263 0-4.194-.79-5.793-2.37-1.593-1.592-2.39-3.513-2.39-5.762 0-2.017.667-3.814 2-5.393 1.641-1.935 3.763-2.902 6.368-2.902 1.422 0 2.796.386 4.122 1.158Zm5.844 5.343h6.83v-6.194h2.389v15.832h-2.389v-7.393h-6.83v7.393h-2.389V11.576h2.389v6.194Z"/><path fill="none" stroke="#201b16" stroke-linejoin="miter" stroke-width="3" d="m15.09 26.035-6.853-6.77 6.853-6.77m9.533-3.053L18.665 29m9.533-2.965 6.852-6.77-6.852-6.77"/></svg>